<svg xmlns="http://www.w3.org/2000/svg" xmlns:xlink="http://www.w3.org/1999/xlink" xmlns:inkscape="http://www.inkscape.org/namespaces/inkscape" version="1.1" width="612" height="792" viewBox="0 0 612 792">
<defs>
<clipPath id="clip_1">
<path transform="matrix(6.7930605,0,0,-6.793289,-3306.7318,337.80674)" d="M493.895 15H540.522V36.723H493.895Z"/>
</clipPath>
</defs>
<g clip-path="url(#clip_1)">
<path transform="matrix(6.7930605,0,0,-6.793289,338.85914,212.43256)" d="M0 0C.287 0 .496-.027 .631-.085 .871-.186 .99-.385 .99-.68 .99-.891 .914-1.045 .764-1.145 .684-1.197 .572-1.234 .43-1.26 .609-1.287 .742-1.365 .826-1.49 .91-1.611 .953-1.734 .953-1.854V-2.025C.953-2.08 .955-2.139 .959-2.201 .963-2.264 .971-2.305 .977-2.324L.992-2.354H.611C.609-2.344 .605-2.338 .605-2.33 .604-2.322 .602-2.313 .6-2.303L.59-2.227V-2.039C.59-1.768 .52-1.588 .373-1.5 .287-1.449 .139-1.426-.08-1.426H-.402V-2.354H-.811V0ZM.437-.369C.334-.312 .172-.283-.055-.283H-.402V-1.135H-.035C.139-1.135 .266-1.119 .354-1.083 .514-1.02 .59-.896 .59-.715 .59-.545 .541-.43 .437-.369M1.533-2.703C1.121-3.123 .625-3.335 .039-3.335-.543-3.335-1.041-3.123-1.449-2.703-1.859-2.285-2.061-1.777-2.061-1.182-2.061-.592-1.855-.09-1.445 .33-1.035 .746-.541 .955 .039 .955 .625 .955 1.121 .746 1.533 .33 1.943-.087 2.15-.592 2.15-1.182 2.15-1.775 1.943-2.283 1.533-2.703M-1.242 .121C-1.594-.238-1.77-.672-1.77-1.182-1.77-1.695-1.594-2.135-1.244-2.494-.893-2.857-.463-3.039 .039-3.039 .541-3.039 .971-2.857 1.324-2.494 1.678-2.135 1.854-1.695 1.854-1.182 1.854-.672 1.678-.238 1.324 .121 .971 .484 .541 .663 .039 .663-.461 .663-.887 .484-1.242 .121M-18.939 9.17-20.484-.248C-20.631-1.146-21.068-1.906-21.766-2.516-22.467-3.131-23.277-3.455-24.18-3.455H-29.139C-29.922-3.455-30.623-3.193-31.174-2.654-31.727-2.102-32-1.389-32.008-.587-32.008-.378-31.994-.186-31.965-.012L-30.418 9.406C-30.275 10.303-29.836 11.063-29.141 11.674-28.437 12.287-27.627 12.611-26.727 12.611H-21.766C-20.977 12.611-20.277 12.344-19.725 11.788-19.172 11.246-18.904 10.542-18.896 9.744-18.895 9.535-18.91 9.344-18.939 9.17M-25.955 7.83-27.023 1.324H-24.949L-23.881 7.83ZM-6.939 7.708H-13.734L-14.785 1.324H-12.707L-12.496 2.59H-13.959L-13.318 6.622H-7.125L-8.244-.246C-8.389-1.145-8.828-1.906-9.525-2.516-10.225-3.131-11.039-3.455-11.939-3.455H-16.896C-17.684-3.455-18.383-3.193-18.934-2.654-19.484-2.102-19.76-1.389-19.768-.587-19.768-.378-19.754-.186-19.723-.012L-18.199 9.281C-18.057 10.18-17.613 10.943-16.918 11.553-16.219 12.165-15.404 12.49-14.506 12.49H-6.15ZM3.084 13.396H-.314L-3.117-3.455H-7.84L-5.037 13.396H-8.98L-8.182 18.178H3.867L3.85 18.037ZM-30.646 11.121-34.148 2.609-35.379-.391C-35.736-1.253-36.336-1.969-37.141-2.547-37.945-3.121-38.801-3.439-39.695-3.439L-42.758-3.455-42.762 18.268H-38.291L-38.32 4.152-33.809 15.131C-33.451 15.99-32.854 16.706-32.047 17.283-31.242 17.859-30.385 18.178-29.488 18.178H-9.338L-10.137 13.396H-25.832-27.227C-28.129 13.396-28.939 13.074-29.641 12.461-30.084 12.074-30.42 11.624-30.646 11.121" fill="#0c548b"/>
</g>
</svg>
